<svg width="840" height="100" viewBox="0 0 840 100" fill="none" xmlns="http://www.w3.org/2000/svg">
<path d="M133.28 92V7.99999H148.88V92H133.28ZM171.6 92V7.99999H184.44L237.12 72.68H230.76V7.99999H246.24V92H233.4L180.72 27.32H187.08V92H171.6ZM268.749 92V7.99999H305.469C314.589 7.99999 322.589 9.76 329.469 13.28C336.349 16.8 341.709 21.68 345.549 27.92C349.389 34.16 351.309 41.52 351.309 50C351.309 58.4 349.389 65.76 345.549 72.08C341.709 78.32 336.349 83.2 329.469 86.72C322.589 90.24 314.589 92 305.469 92H268.749ZM284.349 78.8H304.749C311.069 78.8 316.509 77.6 321.069 75.2C325.709 72.8 329.269 69.44 331.749 65.12C334.309 60.8 335.589 55.76 335.589 50C335.589 44.16 334.309 39.12 331.749 34.88C329.269 30.56 325.709 27.2 321.069 24.8C316.509 22.4 311.069 21.2 304.749 21.2H284.349V78.8ZM367.889 92V7.99999H383.489V92H367.889ZM432.25 93.2C425.69 93.2 419.41 92.28 413.41 90.44C407.41 88.52 402.65 86.08 399.13 83.12L404.53 71C407.89 73.64 412.05 75.84 417.01 77.6C421.97 79.36 427.05 80.24 432.25 80.24C436.65 80.24 440.21 79.76 442.93 78.8C445.65 77.84 447.65 76.56 448.93 74.96C450.21 73.28 450.85 71.4 450.85 69.32C450.85 66.76 449.93 64.72 448.09 63.2C446.25 61.6 443.85 60.36 440.89 59.48C438.01 58.52 434.77 57.64 431.17 56.84C427.65 56.04 424.09 55.12 420.49 54.08C416.97 52.96 413.73 51.56 410.77 49.88C407.89 48.12 405.53 45.8 403.69 42.92C401.85 40.04 400.93 36.36 400.93 31.88C400.93 27.32 402.13 23.16 404.53 19.4C407.01 15.56 410.73 12.52 415.69 10.28C420.73 7.95999 427.09 6.8 434.77 6.8C439.81 6.8 444.81 7.44 449.77 8.72C454.73 10 459.05 11.84 462.73 14.24L457.81 26.36C454.05 24.12 450.17 22.48 446.17 21.44C442.17 20.32 438.33 19.76 434.65 19.76C430.33 19.76 426.81 20.28 424.09 21.32C421.45 22.36 419.49 23.72 418.21 25.4C417.01 27.08 416.41 29 416.41 31.16C416.41 33.72 417.29 35.8 419.05 37.4C420.89 38.92 423.25 40.12 426.13 41C429.09 41.88 432.37 42.76 435.97 43.64C439.57 44.44 443.13 45.36 446.65 46.4C450.25 47.44 453.49 48.8 456.37 50.48C459.33 52.16 461.69 54.44 463.45 57.32C465.29 60.2 466.21 63.84 466.21 68.24C466.21 72.72 464.97 76.88 462.49 80.72C460.09 84.48 456.37 87.52 451.33 89.84C446.29 92.08 439.93 93.2 432.25 93.2ZM520.558 93.2C514.158 93.2 508.198 92.16 502.678 90.08C497.238 87.92 492.478 84.92 488.398 81.08C484.398 77.16 481.278 72.56 479.038 67.28C476.798 62 475.678 56.24 475.678 50C475.678 43.76 476.798 38 479.038 32.72C481.278 27.44 484.438 22.88 488.518 19.04C492.598 15.12 497.358 12.12 502.798 10.04C508.238 7.88 514.198 6.8 520.678 6.8C527.558 6.8 533.838 8 539.518 10.4C545.198 12.72 549.998 16.2 553.918 20.84L543.838 30.32C540.798 27.04 537.398 24.6 533.638 23C529.878 21.32 525.798 20.48 521.398 20.48C516.998 20.48 512.958 21.2 509.278 22.64C505.678 24.08 502.518 26.12 499.798 28.76C497.158 31.4 495.078 34.52 493.558 38.12C492.118 41.72 491.398 45.68 491.398 50C491.398 54.32 492.118 58.28 493.558 61.88C495.078 65.48 497.158 68.6 499.798 71.24C502.518 73.88 505.678 75.92 509.278 77.36C512.958 78.8 516.998 79.52 521.398 79.52C525.798 79.52 529.878 78.72 533.638 77.12C537.398 75.44 540.798 72.92 543.838 69.56L553.918 79.16C549.998 83.72 545.198 87.2 539.518 89.6C533.838 92 527.518 93.2 520.558 93.2ZM568.866 92V7.99999H603.426C610.866 7.99999 617.226 9.2 622.506 11.6C627.866 14 631.986 17.44 634.866 21.92C637.746 26.4 639.186 31.72 639.186 37.88C639.186 44.04 637.746 49.36 634.866 53.84C631.986 58.24 627.866 61.64 622.506 64.04C617.226 66.36 610.866 67.52 603.426 67.52H577.506L584.466 60.44V92H568.866ZM623.826 92L602.586 61.52H619.266L640.626 92H623.826ZM584.466 62.12L577.506 54.68H602.706C609.586 54.68 614.746 53.2 618.186 50.24C621.706 47.28 623.466 43.16 623.466 37.88C623.466 32.52 621.706 28.4 618.186 25.52C614.746 22.64 609.586 21.2 602.706 21.2H577.506L584.466 13.52V62.12ZM656.639 92V7.99999H672.239V92H656.639ZM694.96 92V7.99999H729.52C736.96 7.99999 743.32 9.2 748.6 11.6C753.96 14 758.08 17.44 760.96 21.92C763.84 26.4 765.28 31.72 765.28 37.88C765.28 44.04 763.84 49.36 760.96 53.84C758.08 58.32 753.96 61.76 748.6 64.16C743.32 66.56 736.96 67.76 729.52 67.76H703.6L710.56 60.44V92H694.96ZM710.56 62.12L703.6 54.56H728.8C735.68 54.56 740.84 53.12 744.28 50.24C747.8 47.28 749.56 43.16 749.56 37.88C749.56 32.52 747.8 28.4 744.28 25.52C740.84 22.64 735.68 21.2 728.8 21.2H703.6L710.56 13.52V62.12ZM795.437 92V21.2H767.597V7.99999H838.877V21.2H811.037V92H795.437Z" fill="#0E7500"/>
<g clip-path="url(#clip0_10_94)">
<path d="M107.014 0H7.98611C3.5755 0 0 3.5722 0 7.97872V92.0213C0 96.4278 3.5755 100 7.98611 100H107.014C111.424 100 115 96.4278 115 92.0213V7.97872C115 3.5722 111.424 0 107.014 0Z" fill="#0E7500"/>
<path d="M69.2396 88.2979V60.3723H74.4306V88.2979H69.2396ZM90.6557 88.6968C88.4728 88.6968 86.3831 88.3909 84.3866 87.7792C82.3901 87.1409 80.8062 86.3298 79.6349 85.3457L81.4318 81.3165C82.5498 82.1941 83.9341 82.9255 85.5845 83.5106C87.235 84.0957 88.9254 84.3883 90.6557 84.3883C92.1198 84.3883 93.3044 84.2287 94.2095 83.9096C95.1146 83.5904 95.7801 83.1649 96.2061 82.633C96.632 82.0745 96.8449 81.4495 96.8449 80.758C96.8449 79.9069 96.5388 79.2287 95.9265 78.7234C95.3143 78.1915 94.5157 77.7792 93.5307 77.4867C92.5724 77.1675 91.4943 76.875 90.2963 76.609C89.125 76.3431 87.9404 76.0372 86.7425 75.6915C85.5712 75.3191 84.4931 74.8537 83.5081 74.2952C82.5498 73.7101 81.7645 72.9388 81.1522 71.9814C80.54 71.0239 80.2338 69.8005 80.2338 68.3112C80.2338 66.7952 80.6331 65.4122 81.4318 64.1622C82.257 62.8856 83.4948 61.875 85.1453 61.1303C86.8224 60.359 88.9387 59.9734 91.4943 59.9734C93.1713 59.9734 94.8351 60.1862 96.4856 60.6117C98.136 61.0372 99.5735 61.6489 100.798 62.4468L99.1609 66.476C97.9098 65.7314 96.6187 65.1862 95.2877 64.8404C93.9566 64.4681 92.6789 64.2819 91.4543 64.2819C90.0168 64.2819 88.8455 64.4548 87.9404 64.8005C87.062 65.1463 86.4098 65.5984 85.9838 66.1569C85.5845 66.7154 85.3849 67.3537 85.3849 68.0718C85.3849 68.9229 85.6777 69.6143 86.2633 70.1463C86.8756 70.6516 87.6609 71.0505 88.6193 71.3431C89.6042 71.6356 90.6956 71.9282 91.8936 72.2207C93.0915 72.4867 94.2761 72.7925 95.4474 73.1383C96.6453 73.484 97.7234 73.9362 98.6818 74.4947C99.6667 75.0532 100.452 75.8112 101.038 76.7686C101.65 77.726 101.956 78.9362 101.956 80.3989C101.956 81.8883 101.543 83.2713 100.718 84.5479C99.9196 85.7979 98.6818 86.8085 97.0047 87.5798C95.3276 88.3244 93.2113 88.6968 90.6557 88.6968Z" fill="white"/>
</g>
<defs>
<clipPath id="clip0_10_94">
<rect width="115" height="100" fill="white"/>
</clipPath>
</defs>
</svg>
